<svg xmlns="http://www.w3.org/2000/svg" xmlns:xlink="http://www.w3.org/1999/xlink" width="150" zoomAndPan="magnify" viewBox="0 0 112.5 112.499997" height="150" preserveAspectRatio="xMidYMid meet" version="1.0"><defs><clipPath id="116b7564ee"><path d="M 2.011719 6.332031 L 110 6.332031 L 110 105.640625 L 2.011719 105.640625 Z M 2.011719 6.332031 " clip-rule="nonzero"/></clipPath></defs><g clip-path="url(#116b7564ee)"><path fill="#38b6ff" d="M 108.710938 92.09375 C 100.542969 60.289062 84.007812 32.605469 59.59375 9.796875 L 55.996094 6.441406 L 52.398438 9.796875 C 27.980469 32.605469 11.457031 60.289062 3.285156 92.09375 L 2.011719 97.015625 L 6.914062 98.457031 C 23.003906 103.167969 39.429688 105.542969 56.195312 105.582031 C 72.84375 105.566406 89.148438 103.1875 105.105469 98.449219 L 109.976562 97.011719 Z M 55.996094 20.921875 C 57.59375 22.492188 59.132812 24.089844 60.644531 25.703125 L 50.085938 38.976562 C 41.265625 49.65625 34.136719 61.363281 28.695312 74.101562 C 26.058594 73.566406 23.492188 72.941406 20.992188 72.25 C 28.996094 53.097656 40.554688 36.144531 55.996094 20.921875 Z M 50.238281 56.359375 L 50.238281 76.613281 C 46.566406 76.46875 42.96875 76.191406 39.441406 75.785156 C 42.492188 69.003906 46.089844 62.527344 50.238281 56.359375 Z M 60.753906 54.917969 C 65.3125 61.515625 69.246094 68.464844 72.550781 75.769531 C 68.613281 76.238281 64.675781 76.488281 60.765625 76.648438 Z M 14.832031 89.703125 C 15.550781 87.128906 16.394531 84.609375 17.242188 82.105469 C 29.988281 85.621094 42.972656 87.339844 56.195312 87.257812 C 63.066406 87.246094 69.90625 86.765625 76.710938 85.816406 C 77.589844 88.070312 78.566406 90.667969 79.503906 93.296875 C 68.714844 94.875 57.875 95.363281 46.988281 94.757812 C 36.097656 94.152344 25.378906 92.46875 14.832031 89.703125 Z M 89.984375 91.410156 C 89.121094 88.921875 88.199219 86.414062 87.328125 84.140625 L 86.929688 83.140625 C 85.636719 79.773438 84.503906 77.007812 83.964844 75.703125 L 83.683594 74.984375 L 83.632812 74.863281 C 78.320312 62.242188 71.347656 50.613281 62.71875 39.984375 L 67.707031 33.714844 C 74.507812 41.925781 80.390625 50.746094 85.351562 60.183594 C 90.316406 69.617188 94.257812 79.464844 97.171875 89.71875 C 94.785156 90.34375 92.386719 90.898438 89.984375 91.410156 Z M 89.984375 91.410156 " fill-opacity="1" fill-rule="nonzero"/></g></svg>