<svg xmlns="http://www.w3.org/2000/svg" xmlns:xlink="http://www.w3.org/1999/xlink" width="150" zoomAndPan="magnify" viewBox="0 0 112.5 112.499997" height="150" preserveAspectRatio="xMidYMid meet" version="1.0"><defs><g/><clipPath id="ec97b09105"><path d="M 11.175781 2.574219 L 100.777344 2.574219 L 100.777344 84.707031 L 11.175781 84.707031 Z M 11.175781 2.574219 " clip-rule="nonzero"/></clipPath></defs><g clip-path="url(#ec97b09105)"><path fill="#38b6ff" d="M 99.769531 73.78125 C 92.988281 47.371094 79.257812 24.386719 58.988281 5.445312 L 56 2.660156 L 53.011719 5.445312 C 32.738281 24.386719 19.015625 47.371094 12.230469 73.78125 L 11.175781 77.871094 L 15.246094 79.066406 C 28.605469 82.980469 42.246094 84.949219 56.164062 84.984375 C 69.988281 84.96875 83.523438 82.992188 96.777344 79.058594 L 100.824219 77.863281 Z M 56 14.6875 C 57.324219 15.988281 58.605469 17.316406 59.859375 18.65625 L 51.089844 29.675781 C 43.769531 38.542969 37.847656 48.265625 33.328125 58.839844 C 31.140625 58.398438 29.007812 57.878906 26.933594 57.304688 C 33.582031 41.402344 43.179688 27.328125 56 14.6875 Z M 51.21875 44.109375 L 51.21875 60.925781 C 48.167969 60.808594 45.179688 60.578125 42.253906 60.238281 C 44.785156 54.609375 47.773438 49.234375 51.21875 44.109375 Z M 59.949219 42.914062 C 63.734375 48.390625 67 54.160156 69.746094 60.226562 C 66.476562 60.617188 63.207031 60.824219 59.960938 60.957031 Z M 21.820312 71.796875 C 22.417969 69.660156 23.117188 67.566406 23.820312 65.488281 C 34.40625 68.40625 45.1875 69.832031 56.164062 69.765625 C 61.871094 69.753906 67.546875 69.355469 73.199219 68.570312 C 73.929688 70.441406 74.742188 72.597656 75.519531 74.78125 C 66.558594 76.089844 57.558594 76.496094 48.519531 75.996094 C 39.476562 75.492188 30.578125 74.09375 21.820312 71.796875 Z M 84.21875 73.214844 C 83.503906 71.148438 82.738281 69.066406 82.015625 67.179688 L 81.6875 66.347656 C 80.609375 63.550781 79.671875 61.253906 79.222656 60.175781 L 78.992188 59.578125 L 78.949219 59.472656 C 74.535156 48.996094 68.746094 39.339844 61.582031 30.511719 L 65.722656 25.304688 C 71.367188 32.125 76.253906 39.449219 80.375 47.285156 C 84.496094 55.121094 87.769531 63.292969 90.191406 71.808594 C 88.207031 72.332031 86.214844 72.789062 84.21875 73.214844 Z M 84.21875 73.214844 " fill-opacity="1" fill-rule="nonzero"/></g><g fill="#38b6ff" fill-opacity="1"><g transform="translate(19.467337, 109.518012)"><g><path d="M 0.953125 -14.3125 L 4.984375 -14.3125 C 6.503906 -14.3125 7.582031 -14.097656 8.21875 -13.671875 C 8.863281 -13.253906 9.265625 -12.59375 9.421875 -11.6875 C 9.578125 -10.789062 9.65625 -9.28125 9.65625 -7.15625 C 9.65625 -5.050781 9.578125 -3.539062 9.421875 -2.625 C 9.265625 -1.71875 8.863281 -1.050781 8.21875 -0.625 C 7.582031 -0.207031 6.503906 0 4.984375 0 L 0.953125 0 Z M 4.96875 -2.84375 C 5.46875 -2.84375 5.796875 -2.910156 5.953125 -3.046875 C 6.117188 -3.179688 6.222656 -3.507812 6.265625 -4.03125 C 6.316406 -4.5625 6.34375 -5.601562 6.34375 -7.15625 C 6.34375 -8.695312 6.316406 -9.734375 6.265625 -10.265625 C 6.222656 -10.796875 6.117188 -11.125 5.953125 -11.25 C 5.785156 -11.382812 5.457031 -11.453125 4.96875 -11.453125 L 4.265625 -11.453125 L 4.265625 -2.84375 Z M 4.96875 -2.84375 "/></g></g></g><g fill="#38b6ff" fill-opacity="1"><g transform="translate(30.02832, 109.518012)"><g><path d="M 0.953125 0 L 0.953125 -14.3125 L 4.28125 -14.3125 L 4.28125 0 Z M 0.953125 0 "/></g></g></g><g fill="#38b6ff" fill-opacity="1"><g transform="translate(35.454362, 109.518012)"><g><path d="M 5.265625 -5.734375 L 5.265625 -8.46875 L 9.34375 -8.46875 L 9.34375 -0.296875 C 8.84375 -0.148438 8.226562 -0.0351562 7.5 0.046875 C 6.769531 0.128906 6.09375 0.171875 5.46875 0.171875 C 4.125 0.171875 3.125 -0.03125 2.46875 -0.4375 C 1.8125 -0.84375 1.351562 -1.550781 1.09375 -2.5625 C 0.832031 -3.570312 0.703125 -5.101562 0.703125 -7.15625 C 0.703125 -9.175781 0.835938 -10.695312 1.109375 -11.71875 C 1.378906 -12.738281 1.859375 -13.453125 2.546875 -13.859375 C 3.242188 -14.265625 4.296875 -14.46875 5.703125 -14.46875 C 6.296875 -14.46875 6.9375 -14.425781 7.625 -14.34375 C 8.320312 -14.257812 8.878906 -14.15625 9.296875 -14.03125 L 9.296875 -11.421875 C 8.847656 -11.472656 8.363281 -11.519531 7.84375 -11.5625 C 7.332031 -11.601562 6.941406 -11.625 6.671875 -11.625 C 5.753906 -11.625 5.132812 -11.550781 4.8125 -11.40625 C 4.5 -11.269531 4.285156 -10.914062 4.171875 -10.34375 C 4.066406 -9.769531 4.015625 -8.707031 4.015625 -7.15625 C 4.015625 -5.695312 4.046875 -4.671875 4.109375 -4.078125 C 4.171875 -3.484375 4.304688 -3.082031 4.515625 -2.875 C 4.722656 -2.675781 5.078125 -2.578125 5.578125 -2.578125 C 5.804688 -2.578125 6.0625 -2.59375 6.34375 -2.625 L 6.34375 -5.734375 Z M 5.265625 -5.734375 "/></g></g></g><g fill="#38b6ff" fill-opacity="1"><g transform="translate(45.849024, 109.518012)"><g><path d="M 0.953125 0 L 0.953125 -14.3125 L 4.28125 -14.3125 L 4.28125 0 Z M 0.953125 0 "/></g></g></g><g fill="#38b6ff" fill-opacity="1"><g transform="translate(51.275066, 109.518012)"><g><path d="M 0.953125 -14.3125 L 6.09375 -14.3125 C 8.382812 -14.3125 9.53125 -13.109375 9.53125 -10.703125 C 9.53125 -9.679688 9.375 -8.910156 9.0625 -8.390625 C 8.757812 -7.867188 8.273438 -7.519531 7.609375 -7.34375 L 7.609375 -7.265625 C 8.304688 -7.078125 8.816406 -6.738281 9.140625 -6.25 C 9.460938 -5.757812 9.625 -4.953125 9.625 -3.828125 C 9.625 -2.535156 9.34375 -1.570312 8.78125 -0.9375 C 8.21875 -0.3125 7.320312 0 6.09375 0 L 0.953125 0 Z M 5.171875 -8.59375 C 5.492188 -8.59375 5.726562 -8.625 5.875 -8.6875 C 6.019531 -8.75 6.117188 -8.875 6.171875 -9.0625 C 6.234375 -9.257812 6.265625 -9.582031 6.265625 -10.03125 C 6.265625 -10.5 6.238281 -10.828125 6.1875 -11.015625 C 6.132812 -11.203125 6.039062 -11.328125 5.90625 -11.390625 C 5.769531 -11.453125 5.523438 -11.484375 5.171875 -11.484375 L 4.21875 -11.484375 L 4.21875 -8.59375 Z M 5.203125 -2.828125 C 5.546875 -2.828125 5.789062 -2.859375 5.9375 -2.921875 C 6.082031 -2.984375 6.175781 -3.113281 6.21875 -3.3125 C 6.269531 -3.519531 6.296875 -3.863281 6.296875 -4.34375 C 6.296875 -4.8125 6.269531 -5.148438 6.21875 -5.359375 C 6.164062 -5.566406 6.066406 -5.703125 5.921875 -5.765625 C 5.773438 -5.828125 5.535156 -5.859375 5.203125 -5.859375 L 4.21875 -5.859375 L 4.21875 -2.828125 Z M 5.203125 -2.828125 "/></g></g></g><g fill="#38b6ff" fill-opacity="1"><g transform="translate(61.669728, 109.518012)"><g><path d="M 7.140625 0 L 6.703125 -2.65625 L 3.828125 -2.65625 L 3.390625 0 L 0.109375 0 L 2.875 -14.3125 L 7.71875 -14.3125 L 10.484375 0 Z M 5.328125 -11.265625 L 5.171875 -11.265625 L 4.265625 -5.421875 L 6.234375 -5.421875 Z M 5.328125 -11.265625 "/></g></g></g><g fill="#38b6ff" fill-opacity="1"><g transform="translate(72.459382, 109.518012)"><g><path d="M 7.140625 0 L 6.703125 -2.65625 L 3.828125 -2.65625 L 3.390625 0 L 0.109375 0 L 2.875 -14.3125 L 7.71875 -14.3125 L 10.484375 0 Z M 5.328125 -11.265625 L 5.171875 -11.265625 L 4.265625 -5.421875 L 6.234375 -5.421875 Z M 5.328125 -11.265625 "/></g></g></g><g fill="#38b6ff" fill-opacity="1"><g transform="translate(83.249036, 109.518012)"><g><path d="M 4.640625 0.171875 C 3.984375 0.171875 3.304688 0.132812 2.609375 0.0625 C 1.921875 -0.0078125 1.320312 -0.0976562 0.8125 -0.203125 L 0.8125 -2.828125 C 2.070312 -2.734375 3.035156 -2.6875 3.703125 -2.6875 C 4.160156 -2.6875 4.5 -2.703125 4.71875 -2.734375 C 4.9375 -2.765625 5.097656 -2.84375 5.203125 -2.96875 C 5.296875 -3.070312 5.351562 -3.207031 5.375 -3.375 C 5.40625 -3.539062 5.421875 -3.78125 5.421875 -4.09375 C 5.421875 -4.550781 5.394531 -4.875 5.34375 -5.0625 C 5.300781 -5.257812 5.195312 -5.40625 5.03125 -5.5 C 4.863281 -5.59375 4.582031 -5.671875 4.1875 -5.734375 L 2.375 -6.078125 C 1.675781 -6.179688 1.195312 -6.566406 0.9375 -7.234375 C 0.675781 -7.910156 0.546875 -8.863281 0.546875 -10.09375 C 0.546875 -11.3125 0.722656 -12.238281 1.078125 -12.875 C 1.441406 -13.507812 1.925781 -13.929688 2.53125 -14.140625 C 3.144531 -14.359375 3.921875 -14.46875 4.859375 -14.46875 C 5.921875 -14.46875 7.046875 -14.34375 8.234375 -14.09375 L 8.234375 -11.484375 C 7.523438 -11.578125 6.679688 -11.625 5.703125 -11.625 C 5.222656 -11.625 4.875 -11.609375 4.65625 -11.578125 C 4.4375 -11.554688 4.269531 -11.492188 4.15625 -11.390625 C 4.050781 -11.304688 3.976562 -11.175781 3.9375 -11 C 3.894531 -10.820312 3.875 -10.5625 3.875 -10.21875 C 3.875 -9.84375 3.890625 -9.570312 3.921875 -9.40625 C 3.953125 -9.238281 4.023438 -9.113281 4.140625 -9.03125 C 4.265625 -8.957031 4.460938 -8.894531 4.734375 -8.84375 L 6.453125 -8.53125 C 6.921875 -8.425781 7.316406 -8.273438 7.640625 -8.078125 C 7.960938 -7.878906 8.222656 -7.523438 8.421875 -7.015625 C 8.640625 -6.429688 8.75 -5.617188 8.75 -4.578125 C 8.75 -3.203125 8.578125 -2.171875 8.234375 -1.484375 C 7.898438 -0.796875 7.445312 -0.347656 6.875 -0.140625 C 6.3125 0.0664062 5.566406 0.171875 4.640625 0.171875 Z M 4.640625 0.171875 "/></g></g></g></svg>