<svg xmlns="http://www.w3.org/2000/svg" xmlns:xlink="http://www.w3.org/1999/xlink" width="150" zoomAndPan="magnify" viewBox="0 0 112.5 112.499997" height="150" preserveAspectRatio="xMidYMid meet" version="1.0"><defs><g/><clipPath id="795141f8c1"><path d="M 29.722656 20.484375 L 81.988281 20.484375 L 81.988281 69 L 29.722656 69 Z M 29.722656 20.484375 " clip-rule="nonzero"/></clipPath></defs><g clip-path="url(#795141f8c1)"><path fill="#38b6ff" d="M 81.664062 62.230469 C 77.6875 46.746094 69.636719 33.269531 57.753906 22.164062 L 56 20.53125 L 54.25 22.164062 C 42.363281 33.269531 34.320312 46.746094 30.339844 62.230469 L 29.722656 64.625 L 32.109375 65.328125 C 39.941406 67.621094 47.9375 68.777344 56.097656 68.796875 C 64.203125 68.785156 72.140625 67.628906 79.910156 65.324219 L 82.28125 64.621094 Z M 56 27.582031 C 56.777344 28.347656 57.527344 29.125 58.265625 29.910156 L 53.125 36.371094 C 48.832031 41.570312 45.359375 47.269531 42.710938 53.46875 C 41.429688 53.210938 40.175781 52.90625 38.960938 52.570312 C 42.859375 43.246094 48.484375 34.992188 56 27.582031 Z M 53.199219 44.832031 L 53.199219 54.691406 C 51.410156 54.621094 49.660156 54.488281 47.941406 54.289062 C 49.425781 50.988281 51.179688 47.835938 53.199219 44.832031 Z M 58.316406 44.132812 C 60.535156 47.34375 62.449219 50.726562 64.058594 54.28125 C 62.144531 54.511719 60.226562 54.632812 58.324219 54.710938 Z M 35.960938 61.066406 C 36.3125 59.8125 36.722656 58.585938 37.136719 57.367188 C 43.339844 59.078125 49.660156 59.914062 56.097656 59.875 C 59.445312 59.867188 62.773438 59.636719 66.085938 59.175781 C 66.511719 60.269531 66.988281 61.535156 67.445312 62.816406 C 62.191406 63.582031 56.914062 63.820312 51.617188 63.527344 C 46.316406 63.230469 41.097656 62.410156 35.960938 61.066406 Z M 72.546875 61.894531 C 72.125 60.683594 71.675781 59.464844 71.253906 58.359375 L 71.0625 57.871094 C 70.429688 56.230469 69.878906 54.886719 69.617188 54.25 L 69.480469 53.902344 L 69.457031 53.839844 C 66.871094 47.695312 63.476562 42.035156 59.273438 36.859375 L 61.703125 33.808594 C 65.011719 37.804688 67.875 42.101562 70.292969 46.695312 C 72.710938 51.289062 74.628906 56.082031 76.046875 61.074219 C 74.882812 61.378906 73.71875 61.648438 72.546875 61.894531 Z M 72.546875 61.894531 " fill-opacity="1" fill-rule="nonzero"/></g><g fill="#38b6ff" fill-opacity="1"><g transform="translate(34.583123, 83.179651)"><g><path d="M 0.5625 -8.390625 L 2.921875 -8.390625 C 3.804688 -8.390625 4.4375 -8.265625 4.8125 -8.015625 C 5.195312 -7.765625 5.429688 -7.375 5.515625 -6.84375 C 5.609375 -6.320312 5.65625 -5.4375 5.65625 -4.1875 C 5.65625 -2.957031 5.609375 -2.078125 5.515625 -1.546875 C 5.429688 -1.015625 5.195312 -0.625 4.8125 -0.375 C 4.4375 -0.125 3.804688 0 2.921875 0 L 0.5625 0 Z M 2.90625 -1.671875 C 3.195312 -1.671875 3.390625 -1.707031 3.484375 -1.78125 C 3.578125 -1.863281 3.640625 -2.054688 3.671875 -2.359375 C 3.703125 -2.671875 3.71875 -3.28125 3.71875 -4.1875 C 3.71875 -5.09375 3.703125 -5.703125 3.671875 -6.015625 C 3.640625 -6.328125 3.578125 -6.519531 3.484375 -6.59375 C 3.390625 -6.675781 3.195312 -6.71875 2.90625 -6.71875 L 2.5 -6.71875 L 2.5 -1.671875 Z M 2.90625 -1.671875 "/></g></g></g><g fill="#38b6ff" fill-opacity="1"><g transform="translate(40.774516, 83.179651)"><g><path d="M 0.5625 0 L 0.5625 -8.390625 L 2.515625 -8.390625 L 2.515625 0 Z M 0.5625 0 "/></g></g></g><g fill="#38b6ff" fill-opacity="1"><g transform="translate(43.955542, 83.179651)"><g><path d="M 3.078125 -3.359375 L 3.078125 -4.953125 L 5.46875 -4.953125 L 5.46875 -0.171875 C 5.175781 -0.0859375 4.816406 -0.0234375 4.390625 0.015625 C 3.960938 0.0664062 3.566406 0.09375 3.203125 0.09375 C 2.410156 0.09375 1.820312 -0.0195312 1.4375 -0.25 C 1.050781 -0.488281 0.785156 -0.90625 0.640625 -1.5 C 0.492188 -2.09375 0.421875 -2.988281 0.421875 -4.1875 C 0.421875 -5.375 0.5 -6.265625 0.65625 -6.859375 C 0.8125 -7.460938 1.09375 -7.882812 1.5 -8.125 C 1.90625 -8.363281 2.519531 -8.484375 3.34375 -8.484375 C 3.6875 -8.484375 4.0625 -8.457031 4.46875 -8.40625 C 4.875 -8.363281 5.203125 -8.300781 5.453125 -8.21875 L 5.453125 -6.6875 C 5.191406 -6.71875 4.90625 -6.742188 4.59375 -6.765625 C 4.289062 -6.796875 4.0625 -6.8125 3.90625 -6.8125 C 3.375 -6.8125 3.015625 -6.769531 2.828125 -6.6875 C 2.640625 -6.601562 2.515625 -6.394531 2.453125 -6.0625 C 2.390625 -5.726562 2.359375 -5.101562 2.359375 -4.1875 C 2.359375 -3.332031 2.375 -2.726562 2.40625 -2.375 C 2.445312 -2.03125 2.523438 -1.800781 2.640625 -1.6875 C 2.765625 -1.570312 2.972656 -1.515625 3.265625 -1.515625 C 3.398438 -1.515625 3.550781 -1.519531 3.71875 -1.53125 L 3.71875 -3.359375 Z M 3.078125 -3.359375 "/></g></g></g><g fill="#38b6ff" fill-opacity="1"><g transform="translate(50.049429, 83.179651)"><g><path d="M 0.5625 0 L 0.5625 -8.390625 L 2.515625 -8.390625 L 2.515625 0 Z M 0.5625 0 "/></g></g></g><g fill="#38b6ff" fill-opacity="1"><g transform="translate(53.230454, 83.179651)"><g><path d="M 0.5625 -8.390625 L 3.578125 -8.390625 C 4.910156 -8.390625 5.578125 -7.6875 5.578125 -6.28125 C 5.578125 -5.675781 5.488281 -5.21875 5.3125 -4.90625 C 5.132812 -4.601562 4.847656 -4.398438 4.453125 -4.296875 L 4.453125 -4.25 C 4.859375 -4.144531 5.15625 -3.945312 5.34375 -3.65625 C 5.539062 -3.375 5.640625 -2.90625 5.640625 -2.25 C 5.640625 -1.488281 5.472656 -0.921875 5.140625 -0.546875 C 4.816406 -0.179688 4.296875 0 3.578125 0 L 0.5625 0 Z M 3.03125 -5.03125 C 3.21875 -5.03125 3.351562 -5.046875 3.4375 -5.078125 C 3.53125 -5.117188 3.59375 -5.195312 3.625 -5.3125 C 3.65625 -5.425781 3.671875 -5.613281 3.671875 -5.875 C 3.671875 -6.144531 3.65625 -6.335938 3.625 -6.453125 C 3.59375 -6.566406 3.535156 -6.640625 3.453125 -6.671875 C 3.378906 -6.710938 3.238281 -6.734375 3.03125 -6.734375 L 2.46875 -6.734375 L 2.46875 -5.03125 Z M 3.046875 -1.65625 C 3.242188 -1.65625 3.382812 -1.671875 3.46875 -1.703125 C 3.5625 -1.742188 3.617188 -1.820312 3.640625 -1.9375 C 3.671875 -2.0625 3.6875 -2.265625 3.6875 -2.546875 C 3.6875 -2.828125 3.671875 -3.023438 3.640625 -3.140625 C 3.609375 -3.265625 3.550781 -3.34375 3.46875 -3.375 C 3.382812 -3.414062 3.242188 -3.4375 3.046875 -3.4375 L 2.46875 -3.4375 L 2.46875 -1.65625 Z M 3.046875 -1.65625 "/></g></g></g><g fill="#38b6ff" fill-opacity="1"><g transform="translate(59.324341, 83.179651)"><g><path d="M 4.1875 0 L 3.921875 -1.5625 L 2.25 -1.5625 L 1.984375 0 L 0.0625 0 L 1.6875 -8.390625 L 4.515625 -8.390625 L 6.140625 0 Z M 3.125 -6.609375 L 3.03125 -6.609375 L 2.5 -3.1875 L 3.65625 -3.1875 Z M 3.125 -6.609375 "/></g></g></g><g fill="#38b6ff" fill-opacity="1"><g transform="translate(65.649793, 83.179651)"><g><path d="M 4.1875 0 L 3.921875 -1.5625 L 2.25 -1.5625 L 1.984375 0 L 0.0625 0 L 1.6875 -8.390625 L 4.515625 -8.390625 L 6.140625 0 Z M 3.125 -6.609375 L 3.03125 -6.609375 L 2.5 -3.1875 L 3.65625 -3.1875 Z M 3.125 -6.609375 "/></g></g></g><g fill="#38b6ff" fill-opacity="1"><g transform="translate(71.975245, 83.179651)"><g><path d="M 2.71875 0.09375 C 2.332031 0.09375 1.9375 0.0703125 1.53125 0.03125 C 1.125 -0.0078125 0.769531 -0.0625 0.46875 -0.125 L 0.46875 -1.65625 C 1.207031 -1.601562 1.773438 -1.578125 2.171875 -1.578125 C 2.441406 -1.578125 2.640625 -1.585938 2.765625 -1.609375 C 2.898438 -1.628906 2.992188 -1.675781 3.046875 -1.75 C 3.097656 -1.800781 3.132812 -1.875 3.15625 -1.96875 C 3.175781 -2.070312 3.1875 -2.21875 3.1875 -2.40625 C 3.1875 -2.664062 3.171875 -2.851562 3.140625 -2.96875 C 3.109375 -3.082031 3.039062 -3.164062 2.9375 -3.21875 C 2.84375 -3.269531 2.679688 -3.316406 2.453125 -3.359375 L 1.390625 -3.5625 C 0.984375 -3.625 0.703125 -3.851562 0.546875 -4.25 C 0.390625 -4.644531 0.3125 -5.195312 0.3125 -5.90625 C 0.3125 -6.625 0.414062 -7.171875 0.625 -7.546875 C 0.84375 -7.921875 1.128906 -8.171875 1.484375 -8.296875 C 1.835938 -8.421875 2.296875 -8.484375 2.859375 -8.484375 C 3.472656 -8.484375 4.128906 -8.410156 4.828125 -8.265625 L 4.828125 -6.734375 C 4.410156 -6.785156 3.914062 -6.8125 3.34375 -6.8125 C 3.0625 -6.8125 2.851562 -6.800781 2.71875 -6.78125 C 2.59375 -6.769531 2.5 -6.734375 2.4375 -6.671875 C 2.375 -6.628906 2.328125 -6.550781 2.296875 -6.4375 C 2.273438 -6.332031 2.265625 -6.179688 2.265625 -5.984375 C 2.265625 -5.765625 2.273438 -5.601562 2.296875 -5.5 C 2.316406 -5.40625 2.359375 -5.335938 2.421875 -5.296875 C 2.492188 -5.253906 2.613281 -5.210938 2.78125 -5.171875 L 3.78125 -5 C 4.050781 -4.9375 4.28125 -4.847656 4.46875 -4.734375 C 4.664062 -4.617188 4.820312 -4.410156 4.9375 -4.109375 C 5.0625 -3.765625 5.125 -3.289062 5.125 -2.6875 C 5.125 -1.875 5.023438 -1.265625 4.828125 -0.859375 C 4.628906 -0.460938 4.363281 -0.203125 4.03125 -0.078125 C 3.695312 0.0351562 3.257812 0.09375 2.71875 0.09375 Z M 2.71875 0.09375 "/></g></g></g><g fill="#737373" fill-opacity="1"><g transform="translate(5.455242, 90.150395)"><g><path d="M 0.199219 -3.046875 L 0.199219 -2.804688 L 1.269531 -2.804688 L 1.269531 0 L 1.554688 0 L 1.554688 -2.804688 L 2.625 -2.804688 L 2.625 -3.046875 Z M 0.199219 -3.046875 "/></g></g></g><g fill="#737373" fill-opacity="1"><g transform="translate(9.729735, 90.150395)"><g><path d="M 0.613281 0 L 0.613281 -1.941406 L 1.753906 -1.898438 L 1.753906 -2.140625 L 0.609375 -2.183594 C 0.414062 -2.191406 0.328125 -2.097656 0.328125 -1.902344 L 0.328125 0 Z M 0.613281 0 "/></g></g></g><g fill="#737373" fill-opacity="1"><g transform="translate(13.049054, 90.150395)"><g><path d="M 0.242188 -0.597656 C 0.242188 -0.371094 0.328125 0.0429688 0.941406 0.0429688 C 1.445312 0.0429688 1.675781 -0.261719 1.757812 -0.582031 L 1.84375 -0.582031 L 1.800781 -0.367188 L 1.800781 -0.238281 C 1.800781 -0.0859375 1.890625 0 2.039062 0 L 2.402344 0 L 2.402344 -0.242188 L 2.085938 -0.242188 L 2.085938 -1.21875 C 2.085938 -1.761719 1.761719 -2.183594 1.164062 -2.183594 C 0.554688 -2.183594 0.242188 -1.773438 0.242188 -1.347656 L 0.527344 -1.347656 C 0.527344 -1.792969 0.84375 -1.941406 1.164062 -1.941406 C 1.546875 -1.941406 1.777344 -1.730469 1.800781 -1.292969 L 0.910156 -1.210938 C 0.441406 -1.167969 0.242188 -0.929688 0.242188 -0.597656 Z M 0.527344 -0.621094 C 0.527344 -0.851562 0.667969 -0.941406 0.957031 -0.96875 L 1.800781 -1.050781 C 1.800781 -0.570312 1.476562 -0.199219 0.96875 -0.199219 C 0.691406 -0.199219 0.527344 -0.351562 0.527344 -0.621094 Z M 0.527344 -0.621094 "/></g></g></g><g fill="#737373" fill-opacity="1"><g transform="translate(17.016682, 90.150395)"><g><path d="M 1.417969 -1.941406 C 1.792969 -1.941406 1.980469 -1.761719 1.980469 -1.304688 L 1.980469 0 L 2.265625 0 L 2.265625 -1.339844 C 2.265625 -1.917969 1.953125 -2.183594 1.484375 -2.183594 C 1.015625 -2.183594 0.742188 -1.917969 0.65625 -1.53125 L 0.570312 -1.53125 L 0.613281 -1.746094 L 0.613281 -2.140625 L 0.328125 -2.140625 L 0.328125 0 L 0.613281 0 L 0.613281 -0.980469 C 0.613281 -1.550781 0.945312 -1.941406 1.417969 -1.941406 Z M 1.417969 -1.941406 "/></g></g></g><g fill="#737373" fill-opacity="1"><g transform="translate(21.018883, 90.150395)"><g><path d="M 1.957031 -0.550781 C 1.957031 -1.011719 1.488281 -1.105469 1.0625 -1.246094 C 0.71875 -1.355469 0.582031 -1.421875 0.582031 -1.648438 C 0.582031 -1.863281 0.789062 -1.941406 1.046875 -1.941406 C 1.410156 -1.941406 1.597656 -1.792969 1.597656 -1.476562 L 1.882812 -1.476562 C 1.882812 -1.816406 1.699219 -2.183594 1.046875 -2.183594 C 0.574219 -2.183594 0.296875 -1.957031 0.296875 -1.628906 C 0.296875 -1.257812 0.59375 -1.128906 1 -1.003906 C 1.347656 -0.894531 1.671875 -0.84375 1.671875 -0.527344 C 1.671875 -0.285156 1.507812 -0.199219 1.144531 -0.199219 C 0.71875 -0.199219 0.484375 -0.375 0.484375 -0.789062 L 0.199219 -0.789062 C 0.199219 -0.28125 0.472656 0.0429688 1.144531 0.0429688 C 1.769531 0.0429688 1.957031 -0.234375 1.957031 -0.550781 Z M 1.957031 -0.550781 "/></g></g></g><g fill="#737373" fill-opacity="1"><g transform="translate(24.584558, 90.150395)"><g><path d="M 0.328125 0.777344 L 0.613281 0.777344 L 0.613281 -0.351562 L 0.570312 -0.566406 L 0.65625 -0.566406 C 0.742188 -0.21875 1.046875 0.0429688 1.527344 0.0429688 C 2.148438 0.0429688 2.566406 -0.429688 2.566406 -1.066406 C 2.566406 -1.710938 2.148438 -2.183594 1.527344 -2.183594 C 1.046875 -2.183594 0.742188 -1.917969 0.65625 -1.574219 L 0.570312 -1.574219 L 0.613281 -1.789062 L 0.613281 -2.140625 L 0.328125 -2.140625 Z M 0.613281 -1.066406 C 0.613281 -1.679688 1.011719 -1.941406 1.46875 -1.941406 C 1.925781 -1.941406 2.28125 -1.671875 2.28125 -1.066406 C 2.28125 -0.464844 1.925781 -0.199219 1.46875 -0.199219 C 1.011719 -0.199219 0.613281 -0.457031 0.613281 -1.066406 Z M 0.613281 -1.066406 "/></g></g></g><g fill="#737373" fill-opacity="1"><g transform="translate(28.84608, 90.150395)"><g><path d="M 0.242188 -0.597656 C 0.242188 -0.371094 0.328125 0.0429688 0.941406 0.0429688 C 1.445312 0.0429688 1.675781 -0.261719 1.757812 -0.582031 L 1.84375 -0.582031 L 1.800781 -0.367188 L 1.800781 -0.238281 C 1.800781 -0.0859375 1.890625 0 2.039062 0 L 2.402344 0 L 2.402344 -0.242188 L 2.085938 -0.242188 L 2.085938 -1.21875 C 2.085938 -1.761719 1.761719 -2.183594 1.164062 -2.183594 C 0.554688 -2.183594 0.242188 -1.773438 0.242188 -1.347656 L 0.527344 -1.347656 C 0.527344 -1.792969 0.84375 -1.941406 1.164062 -1.941406 C 1.546875 -1.941406 1.777344 -1.730469 1.800781 -1.292969 L 0.910156 -1.210938 C 0.441406 -1.167969 0.242188 -0.929688 0.242188 -0.597656 Z M 0.527344 -0.621094 C 0.527344 -0.851562 0.667969 -0.941406 0.957031 -0.96875 L 1.800781 -1.050781 C 1.800781 -0.570312 1.476562 -0.199219 0.96875 -0.199219 C 0.691406 -0.199219 0.527344 -0.351562 0.527344 -0.621094 Z M 0.527344 -0.621094 "/></g></g></g><g fill="#737373" fill-opacity="1"><g transform="translate(32.813707, 90.150395)"><g><path d="M 0.613281 0 L 0.613281 -1.941406 L 1.753906 -1.898438 L 1.753906 -2.140625 L 0.609375 -2.183594 C 0.414062 -2.191406 0.328125 -2.097656 0.328125 -1.902344 L 0.328125 0 Z M 0.613281 0 "/></g></g></g><g fill="#737373" fill-opacity="1"><g transform="translate(36.133025, 90.150395)"><g><path d="M 0.242188 -1.097656 C 0.242188 -0.480469 0.554688 0.0429688 1.304688 0.0429688 C 1.976562 0.0429688 2.21875 -0.410156 2.304688 -0.746094 L 2.019531 -0.746094 C 1.933594 -0.390625 1.6875 -0.199219 1.304688 -0.199219 C 0.746094 -0.199219 0.554688 -0.582031 0.527344 -1.019531 L 2.230469 -1.019531 L 2.230469 -1.140625 C 2.230469 -1.800781 1.851562 -2.183594 1.257812 -2.183594 C 0.664062 -2.183594 0.242188 -1.789062 0.242188 -1.097656 Z M 0.527344 -1.261719 C 0.527344 -1.640625 0.828125 -1.941406 1.257812 -1.941406 C 1.699219 -1.941406 1.945312 -1.640625 1.945312 -1.261719 Z M 0.527344 -1.261719 "/></g></g></g><g fill="#737373" fill-opacity="1"><g transform="translate(40.130906, 90.150395)"><g><path d="M 1.417969 -1.941406 C 1.792969 -1.941406 1.980469 -1.761719 1.980469 -1.304688 L 1.980469 0 L 2.265625 0 L 2.265625 -1.339844 C 2.265625 -1.917969 1.953125 -2.183594 1.484375 -2.183594 C 1.015625 -2.183594 0.742188 -1.917969 0.65625 -1.53125 L 0.570312 -1.53125 L 0.613281 -1.746094 L 0.613281 -2.140625 L 0.328125 -2.140625 L 0.328125 0 L 0.613281 0 L 0.613281 -0.980469 C 0.613281 -1.550781 0.945312 -1.941406 1.417969 -1.941406 Z M 1.417969 -1.941406 "/></g></g></g><g fill="#737373" fill-opacity="1"><g transform="translate(44.133106, 90.150395)"><g><path d="M 0.859375 -1.898438 L 1.519531 -1.898438 L 1.519531 -2.140625 L 0.859375 -2.140625 L 0.859375 -2.808594 L 0.574219 -2.722656 L 0.574219 -2.140625 L 0.113281 -2.140625 L 0.113281 -1.898438 L 0.574219 -1.898438 L 0.574219 -0.238281 C 0.574219 -0.0429688 0.660156 0.0546875 0.855469 0.0429688 L 1.609375 0 L 1.609375 -0.242188 L 0.859375 -0.195312 Z M 0.859375 -1.898438 "/></g></g></g><g fill="#737373" fill-opacity="1"><g transform="translate(47.391917, 90.150395)"><g><path d="M 0.703125 0.0429688 C 0.886719 0.0429688 1.042969 -0.105469 1.042969 -0.292969 C 1.042969 -0.480469 0.886719 -0.625 0.703125 -0.625 C 0.519531 -0.625 0.371094 -0.480469 0.371094 -0.292969 C 0.371094 -0.105469 0.519531 0.0429688 0.703125 0.0429688 Z M 0.703125 0.0429688 "/></g></g></g><g fill="#737373" fill-opacity="1"><g transform="translate(50.25742, 90.150395)"><g/></g></g><g fill="#737373" fill-opacity="1"><g transform="translate(53.18776, 90.150395)"><g><path d="M 2.15625 0 L 2.15625 -0.242188 L 0.613281 -0.242188 L 0.613281 -1.40625 L 1.941406 -1.40625 L 1.941406 -1.648438 L 0.613281 -1.648438 L 0.613281 -2.804688 L 2.15625 -2.804688 L 2.15625 -3.046875 L 0.328125 -3.046875 L 0.328125 0 Z M 2.15625 0 "/></g></g></g><g fill="#737373" fill-opacity="1"><g transform="translate(57.03869, 90.150395)"><g><path d="M 0.242188 -0.597656 C 0.242188 -0.371094 0.328125 0.0429688 0.941406 0.0429688 C 1.445312 0.0429688 1.675781 -0.261719 1.757812 -0.582031 L 1.84375 -0.582031 L 1.800781 -0.367188 L 1.800781 -0.238281 C 1.800781 -0.0859375 1.890625 0 2.039062 0 L 2.402344 0 L 2.402344 -0.242188 L 2.085938 -0.242188 L 2.085938 -1.21875 C 2.085938 -1.761719 1.761719 -2.183594 1.164062 -2.183594 C 0.554688 -2.183594 0.242188 -1.773438 0.242188 -1.347656 L 0.527344 -1.347656 C 0.527344 -1.792969 0.84375 -1.941406 1.164062 -1.941406 C 1.546875 -1.941406 1.777344 -1.730469 1.800781 -1.292969 L 0.910156 -1.210938 C 0.441406 -1.167969 0.242188 -0.929688 0.242188 -0.597656 Z M 0.527344 -0.621094 C 0.527344 -0.851562 0.667969 -0.941406 0.957031 -0.96875 L 1.800781 -1.050781 C 1.800781 -0.570312 1.476562 -0.199219 0.96875 -0.199219 C 0.691406 -0.199219 0.527344 -0.351562 0.527344 -0.621094 Z M 0.527344 -0.621094 "/></g></g></g><g fill="#737373" fill-opacity="1"><g transform="translate(61.006317, 90.150395)"><g><path d="M 1.957031 -0.550781 C 1.957031 -1.011719 1.488281 -1.105469 1.0625 -1.246094 C 0.71875 -1.355469 0.582031 -1.421875 0.582031 -1.648438 C 0.582031 -1.863281 0.789062 -1.941406 1.046875 -1.941406 C 1.410156 -1.941406 1.597656 -1.792969 1.597656 -1.476562 L 1.882812 -1.476562 C 1.882812 -1.816406 1.699219 -2.183594 1.046875 -2.183594 C 0.574219 -2.183594 0.296875 -1.957031 0.296875 -1.628906 C 0.296875 -1.257812 0.59375 -1.128906 1 -1.003906 C 1.347656 -0.894531 1.671875 -0.84375 1.671875 -0.527344 C 1.671875 -0.285156 1.507812 -0.199219 1.144531 -0.199219 C 0.71875 -0.199219 0.484375 -0.375 0.484375 -0.789062 L 0.199219 -0.789062 C 0.199219 -0.28125 0.472656 0.0429688 1.144531 0.0429688 C 1.769531 0.0429688 1.957031 -0.234375 1.957031 -0.550781 Z M 1.957031 -0.550781 "/></g></g></g><g fill="#737373" fill-opacity="1"><g transform="translate(64.571993, 90.150395)"><g><path d="M 1.308594 -0.375 L 1.308594 -0.246094 L 1.222656 -0.246094 L 1.222656 -0.375 L 0.503906 -2.140625 L 0.199219 -2.140625 L 1.125 0 L 1.125 0.578125 L 0.347656 0.535156 L 0.347656 0.777344 L 1.128906 0.820312 C 1.324219 0.828125 1.410156 0.734375 1.410156 0.582031 L 1.410156 0 L 2.328125 -2.140625 L 2.023438 -2.140625 Z M 1.308594 -0.375 "/></g></g></g><g fill="#737373" fill-opacity="1"><g transform="translate(68.509366, 90.150395)"><g><path d="M 0.703125 0.0429688 C 0.886719 0.0429688 1.042969 -0.105469 1.042969 -0.292969 C 1.042969 -0.480469 0.886719 -0.625 0.703125 -0.625 C 0.519531 -0.625 0.371094 -0.480469 0.371094 -0.292969 C 0.371094 -0.105469 0.519531 0.0429688 0.703125 0.0429688 Z M 0.703125 0.0429688 "/></g></g></g><g fill="#737373" fill-opacity="1"><g transform="translate(71.374869, 90.150395)"><g/></g></g><g fill="#737373" fill-opacity="1"><g transform="translate(74.305206, 90.150395)"><g><path d="M 2.75 0 L 1.746094 -3.046875 L 1.160156 -3.046875 L 0.15625 0 L 0.4375 0 L 0.84375 -1.234375 L 2.0625 -1.234375 L 2.46875 0 Z M 1.410156 -2.960938 L 1.496094 -2.960938 L 1.984375 -1.476562 L 0.921875 -1.476562 Z M 1.410156 -2.960938 "/></g></g></g><g fill="#737373" fill-opacity="1"><g transform="translate(78.661815, 90.150395)"><g><path d="M 0.242188 -1.070312 C 0.242188 -0.472656 0.621094 0.0429688 1.316406 0.0429688 C 1.699219 0.0429688 2.226562 -0.171875 2.285156 -0.796875 L 1.996094 -0.796875 C 1.925781 -0.339844 1.636719 -0.199219 1.316406 -0.199219 C 0.773438 -0.199219 0.527344 -0.605469 0.527344 -1.070312 C 0.527344 -1.535156 0.773438 -1.941406 1.316406 -1.941406 C 1.636719 -1.941406 1.925781 -1.796875 1.996094 -1.34375 L 2.285156 -1.34375 C 2.226562 -1.964844 1.699219 -2.183594 1.316406 -2.183594 C 0.621094 -2.183594 0.242188 -1.667969 0.242188 -1.070312 Z M 0.242188 -1.070312 "/></g></g></g><g fill="#737373" fill-opacity="1"><g transform="translate(82.642406, 90.150395)"><g><path d="M 0.242188 -1.070312 C 0.242188 -0.472656 0.621094 0.0429688 1.316406 0.0429688 C 1.699219 0.0429688 2.226562 -0.171875 2.285156 -0.796875 L 1.996094 -0.796875 C 1.925781 -0.339844 1.636719 -0.199219 1.316406 -0.199219 C 0.773438 -0.199219 0.527344 -0.605469 0.527344 -1.070312 C 0.527344 -1.535156 0.773438 -1.941406 1.316406 -1.941406 C 1.636719 -1.941406 1.925781 -1.796875 1.996094 -1.34375 L 2.285156 -1.34375 C 2.226562 -1.964844 1.699219 -2.183594 1.316406 -2.183594 C 0.621094 -2.183594 0.242188 -1.667969 0.242188 -1.070312 Z M 0.242188 -1.070312 "/></g></g></g><g fill="#737373" fill-opacity="1"><g transform="translate(86.622997, 90.150395)"><g><path d="M 1.132812 -0.199219 C 0.757812 -0.199219 0.570312 -0.375 0.570312 -0.835938 L 0.570312 -2.140625 L 0.285156 -2.140625 L 0.285156 -0.800781 C 0.285156 -0.21875 0.597656 0.0429688 1.066406 0.0429688 C 1.535156 0.0429688 1.804688 -0.21875 1.894531 -0.609375 L 1.980469 -0.609375 L 1.9375 -0.394531 L 1.9375 0 L 2.222656 0 L 2.222656 -2.140625 L 1.9375 -2.140625 L 1.9375 -1.160156 C 1.9375 -0.585938 1.601562 -0.199219 1.132812 -0.199219 Z M 1.132812 -0.199219 "/></g></g></g><g fill="#737373" fill-opacity="1"><g transform="translate(90.581979, 90.150395)"><g><path d="M 0.613281 0 L 0.613281 -1.941406 L 1.753906 -1.898438 L 1.753906 -2.140625 L 0.609375 -2.183594 C 0.414062 -2.191406 0.328125 -2.097656 0.328125 -1.902344 L 0.328125 0 Z M 0.613281 0 "/></g></g></g><g fill="#737373" fill-opacity="1"><g transform="translate(93.901298, 90.150395)"><g><path d="M 0.242188 -0.597656 C 0.242188 -0.371094 0.328125 0.0429688 0.941406 0.0429688 C 1.445312 0.0429688 1.675781 -0.261719 1.757812 -0.582031 L 1.84375 -0.582031 L 1.800781 -0.367188 L 1.800781 -0.238281 C 1.800781 -0.0859375 1.890625 0 2.039062 0 L 2.402344 0 L 2.402344 -0.242188 L 2.085938 -0.242188 L 2.085938 -1.21875 C 2.085938 -1.761719 1.761719 -2.183594 1.164062 -2.183594 C 0.554688 -2.183594 0.242188 -1.773438 0.242188 -1.347656 L 0.527344 -1.347656 C 0.527344 -1.792969 0.84375 -1.941406 1.164062 -1.941406 C 1.546875 -1.941406 1.777344 -1.730469 1.800781 -1.292969 L 0.910156 -1.210938 C 0.441406 -1.167969 0.242188 -0.929688 0.242188 -0.597656 Z M 0.527344 -0.621094 C 0.527344 -0.851562 0.667969 -0.941406 0.957031 -0.96875 L 1.800781 -1.050781 C 1.800781 -0.570312 1.476562 -0.199219 0.96875 -0.199219 C 0.691406 -0.199219 0.527344 -0.351562 0.527344 -0.621094 Z M 0.527344 -0.621094 "/></g></g></g><g fill="#737373" fill-opacity="1"><g transform="translate(97.86893, 90.150395)"><g><path d="M 0.859375 -1.898438 L 1.519531 -1.898438 L 1.519531 -2.140625 L 0.859375 -2.140625 L 0.859375 -2.808594 L 0.574219 -2.722656 L 0.574219 -2.140625 L 0.113281 -2.140625 L 0.113281 -1.898438 L 0.574219 -1.898438 L 0.574219 -0.238281 C 0.574219 -0.0429688 0.660156 0.0546875 0.855469 0.0429688 L 1.609375 0 L 1.609375 -0.242188 L 0.859375 -0.195312 Z M 0.859375 -1.898438 "/></g></g></g><g fill="#737373" fill-opacity="1"><g transform="translate(101.127741, 90.150395)"><g><path d="M 0.242188 -1.097656 C 0.242188 -0.480469 0.554688 0.0429688 1.304688 0.0429688 C 1.976562 0.0429688 2.21875 -0.410156 2.304688 -0.746094 L 2.019531 -0.746094 C 1.933594 -0.390625 1.6875 -0.199219 1.304688 -0.199219 C 0.746094 -0.199219 0.554688 -0.582031 0.527344 -1.019531 L 2.230469 -1.019531 L 2.230469 -1.140625 C 2.230469 -1.800781 1.851562 -2.183594 1.257812 -2.183594 C 0.664062 -2.183594 0.242188 -1.789062 0.242188 -1.097656 Z M 0.527344 -1.261719 C 0.527344 -1.640625 0.828125 -1.941406 1.257812 -1.941406 C 1.699219 -1.941406 1.945312 -1.640625 1.945312 -1.261719 Z M 0.527344 -1.261719 "/></g></g></g><g fill="#737373" fill-opacity="1"><g transform="translate(105.125627, 90.150395)"><g><path d="M 0.703125 0.0429688 C 0.886719 0.0429688 1.042969 -0.105469 1.042969 -0.292969 C 1.042969 -0.480469 0.886719 -0.625 0.703125 -0.625 C 0.519531 -0.625 0.371094 -0.480469 0.371094 -0.292969 C 0.371094 -0.105469 0.519531 0.0429688 0.703125 0.0429688 Z M 0.703125 0.0429688 "/></g></g></g></svg>