<?xml version="1.0" encoding="iso-8859-1"?>
<!-- Uploaded to: SVG Repo, www.svgrepo.com, Generator: SVG Repo Mixer Tools -->
<svg height="800px" width="800px" version="1.1" id="Layer_1" xmlns="http://www.w3.org/2000/svg" xmlns:xlink="http://www.w3.org/1999/xlink" 
	 viewBox="0 0 511.98 511.98" xml:space="preserve">
<polygon style="fill:#46CEAD;" points="415.984,511.98 287.988,511.98 255.991,330.643 223.991,511.98 95.995,511.98 117.332,0 
	394.641,0 "/>
<g>
	<polygon style="fill:#35BB9B;" points="229.64,479.982 97.332,479.982 95.995,511.98 223.991,511.98 	"/>
	<polygon style="fill:#35BB9B;" points="287.988,511.98 415.984,511.98 414.641,479.982 282.335,479.982 	"/>
	<path style="fill:#35BB9B;" d="M284.303,53.333c11.936,9.102,56.465,40.569,114.697,50.975l-0.922-21.889
		c-30.154-6.133-56.373-18.46-74.873-29.085h73.67l-0.891-21.335h-54.653V0h-21.342v31.999H191.993V0h-21.335v31.999h-54.662
		l-0.891,21.335h73.731c-18.46,10.625-44.686,22.945-74.942,29.085l-0.914,21.889c58.224-10.406,102.77-41.873,114.699-50.975
		C227.678,53.333,284.303,53.333,284.303,53.333z"/>
</g>
<path style="fill:#E5E8EC;" d="M245.327,0v85.333c0,5.89,4.773,10.664,10.664,10.664c5.891,0,10.665-4.773,10.665-10.664V0H245.327z
	"/>
</svg>